M48
; DRILL file KiCad 10.0.4 date 2026-07-25T03:05:29
; FORMAT={-:-/ absolute / metric / decimal}
; #@! TF.CreationDate,2026-07-25T03:05:29+01:00
; #@! TF.GenerationSoftware,Kicad,Pcbnew,10.0.4
; #@! TF.FileFunction,Plated,1,2,PTH
FMAT,2
METRIC
; #@! TA.AperFunction,Plated,PTH,ComponentDrill
T1C1.000
; #@! TA.AperFunction,Plated,PTH,ComponentDrill
T2C1.500
%
G90
G05
T1
X86.69Y-77.0
X89.23Y-77.0
X91.77Y-77.0
X94.31Y-77.0
X102.375Y-64.88
X102.375Y-67.42
X102.375Y-69.96
X102.375Y-72.5
X102.375Y-75.04
X102.375Y-77.58
X102.375Y-80.12
X117.625Y-64.88
X117.625Y-67.42
X117.625Y-69.96
X117.625Y-72.5
X117.625Y-75.04
X117.625Y-77.58
X117.625Y-80.12
T2
X106.15Y-92.04
X112.5Y-89.5
X127.15Y-71.04
X127.15Y-92.04
X127.15Y-113.04
X133.5Y-68.5
X133.5Y-89.5
X133.5Y-110.5
X148.15Y-92.04
X154.5Y-89.5
M30
